<svg xmlns="http://www.w3.org/2000/svg" viewBox="0 0 24 18">
  <rect width="24" height="6" fill="#ff0000"/>
  <rect y="6" width="24" height="6" fill="#ffffff"/>
  <rect y="12" width="24" height="6" fill="#171796"/>
  <g transform="translate(8.5,4.5)">
    <rect width="7" height="9" rx="0.8" fill="#ffffff"/>
    <g fill="#ff0000">
      <rect x="0" y="0" width="1.4" height="1.8"/><rect x="2.8" y="0" width="1.4" height="1.8"/><rect x="5.6" y="0" width="1.4" height="1.8"/>
      <rect x="1.4" y="1.8" width="1.4" height="1.8"/><rect x="4.2" y="1.8" width="1.4" height="1.8"/>
      <rect x="0" y="3.6" width="1.4" height="1.8"/><rect x="2.8" y="3.6" width="1.4" height="1.8"/><rect x="5.6" y="3.6" width="1.4" height="1.8"/>
      <rect x="1.4" y="5.4" width="1.4" height="1.8"/><rect x="4.2" y="5.4" width="1.4" height="1.8"/>
      <rect x="0" y="7.2" width="1.4" height="1.8"/><rect x="2.8" y="7.2" width="1.4" height="1.8"/><rect x="5.6" y="7.2" width="1.4" height="1.8"/>
    </g>
  </g>
</svg>
