<svg xmlns="http://www.w3.org/2000/svg" viewBox="0 0 28 19" width="28" height="19" role="img" aria-label="Грб Србије">
  <!-- Štit (crveno polje) — širok, ~formata zastave -->
  <path d="M2 2 H26 V10.5 C26 15 22 17.8 14 18.6 C6 17.8 2 15 2 10.5 Z" fill="#C6363C" stroke="#9e2a2f" stroke-width="0.6"/>
  <!-- Srpski krst -->
  <g fill="#ffffff">
    <rect x="12.6" y="3.8" width="2.8" height="10.8" rx="0.3"/>
    <rect x="4.6" y="7.6" width="18.8" height="2.8" rx="0.3"/>
  </g>
  <!-- Četiri ocila (kao slovo „С" oko krsta) -->
  <g fill="none" stroke="#ffffff" stroke-width="1.2" stroke-linecap="round">
    <path transform="translate(8.5 5.8)"   d="M1.05 -1.3 A1.7 1.7 0 1 0 1.05 1.3"/>
    <path transform="translate(8.5 12.2)"  d="M1.05 -1.3 A1.7 1.7 0 1 0 1.05 1.3"/>
    <path transform="translate(19.5 5.8)  scale(-1 1)" d="M1.05 -1.3 A1.7 1.7 0 1 0 1.05 1.3"/>
    <path transform="translate(19.5 12.2) scale(-1 1)" d="M1.05 -1.3 A1.7 1.7 0 1 0 1.05 1.3"/>
  </g>
</svg>
