<svg xmlns="http://www.w3.org/2000/svg" viewBox="0 0 24 28" width="24" height="28" role="img" aria-label="Грб Србије">
  <!-- Štit (crveno polje) -->
  <path d="M3 2.5 H21 V13 C21 20 16.5 24.6 12 26.6 C7.5 24.6 3 20 3 13 Z" fill="#C6363C" stroke="#9e2a2f" stroke-width="0.6"/>
  <!-- Srpski krst -->
  <g fill="#ffffff">
    <rect x="10.8" y="5.4" width="2.4" height="14.2" rx="0.3"/>
    <rect x="4.9" y="11.6" width="14.2" height="2.4" rx="0.3"/>
  </g>
  <!-- Četiri ocila (kao slovo „С" oko krsta) -->
  <g fill="none" stroke="#ffffff" stroke-width="1.2" stroke-linecap="round">
    <path transform="translate(7.5 8.6)"  d="M1.25 -1.5 A2 2 0 1 0 1.25 1.5"/>
    <path transform="translate(7.5 16.4)" d="M1.25 -1.5 A2 2 0 1 0 1.25 1.5"/>
    <path transform="translate(16.5 8.6)  scale(-1 1)" d="M1.25 -1.5 A2 2 0 1 0 1.25 1.5"/>
    <path transform="translate(16.5 16.4) scale(-1 1)" d="M1.25 -1.5 A2 2 0 1 0 1.25 1.5"/>
  </g>
</svg>
